<svg width="520" height="520" fill="none" xmlns="http://www.w3.org/2000/svg">
	<g transform="translate(0.000000,512.000000) scale(0.100000,-0.100000)" fill="#DE001E" stroke="none">
		<path d="M1350 4904 c-83 -64 -154 -122 -156 -129 -3 -7 35 -73 85 -145 50 -73 88 -136 85 -141 -2 -4 -44 -36 -92 -70 -195 -140 -383 -320 -520 -497 -235 -305 -386 -667 -449 -1072 -24 -161 -24 -501 1 -660 37 -237 109 -465 213 -680 169 -345 448 -667 761 -879 34 -23 62 -48 62 -55 0 -7 -32 -59 -71 -115 -83 -122 -94 -95 101 -253 l135 -109 28 33 c15 18 62 84 104 146 42 61 80 112 83 112 3 0 59 -18 124 -40 241 -81 436 -111 717 -111 288 0 463 28 732 117 60 20 109 34 111 33 1 -2 35 -51 75 -109 39 -58 85 -121 101 -140 26 -32 31 -34 50 -22 46 28 290 224 290 232 0 5 -31 55 -70 111 -38 56 -70 107 -70 113 0 6 50 47 112 91 61 44 167 134 235 199 257 247 436 513 557 828 48 126 101 306 93 315 -4 3 -97 6 -208 7 l-201 1 -38 -105 c-115 -323 -271 -556 -524 -788 -78 -71 -224 -182 -239 -182 -12 0 -133 294 -182 442 -87 263 -151 554 -169 763 -4 39 -9 94 -12 123 l-5 52 178 -2 178 -3 17 -143 c22 -179 58 -361 103 -519 40 -140 93 -291 105 -298 18 -11 194 222 256 338 l31 58 -24 97 c-104 428 -111 875 -22 1307 18 83 32 155 32 161 1 18 -72 132 -144 229 -98 130 -136 172 -148 160 -12 -14 -84 -237 -116 -364 -32 -125 -71 -356 -80 -466 -3 -44 -8 -95 -11 -112 l-5 -33 -176 0 -176 0 7 103 c27 387 123 778 289 1170 37 89 53 117 64 113 64 -25 255 -184 373 -311 239 -257 396 -565 466 -915 15 -72 24 -137 20 -145 -4 -12 -28 -15 -131 -15 l-125 0 0 -205 0 -205 341 0 342 0 -6 223 c-5 235 -23 373 -71 557 -140 537 -461 996 -924 1320 -58 40 -91 69 -87 78 2 7 43 69 90 137 47 67 85 128 85 133 0 6 -70 64 -157 130 l-156 121 -32 -42 c-18 -23 -72 -102 -120 -175 -64 -97 -92 -132 -104 -129 -9 3 -69 21 -133 41 -240 73 -403 96 -683 96 -266 0 -489 -37 -729 -120 -33 -11 -63 -20 -67 -20 -5 0 -37 44 -72 98 -35 53 -88 132 -119 174 l-56 78 -152 -116z m1530 -523 c107 -19 275 -62 287 -74 2 -3 -31 -95 -75 -204 -139 -345 -217 -632 -267 -977 -46 -316 -50 -785 -10 -1086 54 -408 172 -824 334 -1174 23 -49 41 -95 41 -102 0 -14 -51 -32 -175 -63 -269 -68 -558 -75 -828 -20 -134 27 -257 67 -257 83 0 8 16 49 36 92 180 393 303 844 349 1284 21 196 21 645 0 828 -50 445 -146 808 -324 1224 -22 53 -41 102 -41 107 0 18 168 63 350 92 152 25 413 20 580 -10z m-1252 -378 c165 -393 266 -800 289 -1167 l6 -106 -172 0 c-201 0 -184 -11 -195 135 -19 254 -157 827 -203 842 -27 9 -283 -346 -283 -392 0 -12 13 -86 29 -165 51 -248 56 -306 56 -605 0 -299 -8 -383 -62 -625 -40 -181 -40 -170 5 -247 59 -100 134 -203 195 -269 l54 -58 51 154 c83 255 131 470 155 697 l12 118 179 3 178 2 -7 -77 c-18 -208 -67 -484 -119 -671 -59 -207 -205 -590 -242 -631 -10 -11 -187 132 -300 244 -195 194 -316 370 -419 610 -89 209 -134 414 -142 656 -20 569 188 1071 607 1465 94 88 248 204 270 204 5 0 30 -53 58 -117z"/>
	</g>
<defs>
<filter id="filter0_f_403_34461" x="-58" y="17" width="477" height="477" filterUnits="userSpaceOnUse" color-interpolation-filters="sRGB">
<feFlood flood-opacity="0" result="BackgroundImageFix"/>
<feBlend mode="normal" in="SourceGraphic" in2="BackgroundImageFix" result="shape"/>
<feGaussianBlur stdDeviation="50" result="effect1_foregroundBlur_403_34461"/>
</filter>
<radialGradient id="paint0_radial_403_34461" cx="0" cy="0" r="1" gradientUnits="userSpaceOnUse" gradientTransform="translate(180.5 255.5) rotate(90) scale(138.5)">
<stop stop-color="#9E89E8"/>
<stop offset="1" stop-color="#7615EA" stop-opacity="0"/>
</radialGradient>
<linearGradient id="paint1_linear_403_34461" x1="191.76" y1="291.258" x2="191.76" y2="324.291" gradientUnits="userSpaceOnUse">
<stop offset="0.2368" stop-color="#958FE7"/>
<stop offset="0.4881" stop-color="#BBB7EF"/>
</linearGradient>
<linearGradient id="paint2_linear_403_34461" x1="167.373" y1="291.258" x2="167.373" y2="324.291" gradientUnits="userSpaceOnUse">
<stop offset="0.2368" stop-color="#958FE7"/>
<stop offset="0.4881" stop-color="#BBB7EF"/>
</linearGradient>
<linearGradient id="paint3_linear_403_34461" x1="124.404" y1="251.032" x2="93.7002" y2="304.235" gradientUnits="userSpaceOnUse">
<stop offset="0.1197" stop-color="#958FE7"/>
<stop offset="0.2551" stop-color="#BBB7EF"/>
</linearGradient>
<linearGradient id="paint4_linear_403_34461" x1="246.292" y1="244.593" x2="269.073" y2="236.298" gradientUnits="userSpaceOnUse">
<stop offset="0.1918" stop-color="#958FE7"/>
<stop offset="0.4956" stop-color="#BBB7EF"/>
</linearGradient>
<radialGradient id="paint5_radial_403_34461" cx="0" cy="0" r="1" gradientUnits="userSpaceOnUse" gradientTransform="translate(245.425 237.106) scale(21.2351 21.2263)">
<stop stop-color="#8065E0"/>
<stop offset="1" stop-color="#512BD4"/>
</radialGradient>
<radialGradient id="paint6_radial_403_34461" cx="0" cy="0" r="1" gradientUnits="userSpaceOnUse" gradientTransform="translate(112.354 238.519) scale(18.7521 18.7443)">
<stop stop-color="#8065E0"/>
<stop offset="1" stop-color="#512BD4"/>
</radialGradient>
<radialGradient id="paint7_radial_403_34461" cx="0" cy="0" r="1" gradientUnits="userSpaceOnUse" gradientTransform="translate(195.581 201.942) scale(82.3555 82.3213)">
<stop offset="0.186" stop-color="#A08BE8"/>
<stop offset="0.7272" stop-color="#8065E0"/>
</radialGradient>
<radialGradient id="paint8_radial_403_34461" cx="0" cy="0" r="1" gradientUnits="userSpaceOnUse" gradientTransform="translate(141.174 221.209) scale(70.1068 70.0777)">
<stop offset="0.0933" stop-color="#E1DFDD"/>
<stop offset="0.6573" stop-color="white"/>
</radialGradient>
<radialGradient id="paint9_radial_403_34461" cx="0" cy="0" r="1" gradientUnits="userSpaceOnUse" gradientTransform="translate(132.263 273.624) scale(37.1072 37.0918)">
<stop offset="0.4614" stop-color="#A08BE8"/>
<stop offset="0.5268" stop-color="#A793EA"/>
<stop offset="0.8352" stop-color="#C5B7F0"/>
<stop offset="1" stop-color="#D0C5F3"/>
</radialGradient>
<radialGradient id="paint10_radial_403_34461" cx="0" cy="0" r="1" gradientUnits="userSpaceOnUse" gradientTransform="translate(167.28 247.856) scale(50.5272 50.5062)">
<stop stop-color="#512BD4"/>
<stop offset="0.4098" stop-color="#6645D9"/>
<stop offset="0.7102" stop-color="#7659DD"/>
<stop offset="0.9583" stop-color="#8065E0"/>
</radialGradient>
<radialGradient id="paint11_radial_403_34461" cx="0" cy="0" r="1" gradientUnits="userSpaceOnUse" gradientTransform="translate(272.407 189.609) scale(22.7499 22.7404)">
<stop stop-color="#A08BE8"/>
<stop offset="0.9913" stop-color="#8065E0"/>
</radialGradient>
<radialGradient id="paint12_radial_403_34461" cx="0" cy="0" r="1" gradientUnits="userSpaceOnUse" gradientTransform="translate(192.443 326.874) scale(15.3042 15.2978)">
<stop stop-color="#8065E0"/>
<stop offset="0.8778" stop-color="#512BD4"/>
</radialGradient>
<radialGradient id="paint13_radial_403_34461" cx="0" cy="0" r="1" gradientUnits="userSpaceOnUse" gradientTransform="translate(110.25 299.663) scale(20.1459 20.1375)">
<stop offset="0.0841" stop-color="#A08BE8"/>
<stop offset="1" stop-color="#8065E0"/>
</radialGradient>
<radialGradient id="paint14_radial_403_34461" cx="0" cy="0" r="1" gradientUnits="userSpaceOnUse" gradientTransform="translate(180.414 147.725) scale(24.2612 24.2511)">
<stop offset="0.1717" stop-color="#A08BE8"/>
<stop offset="0.9987" stop-color="#8065E0"/>
</radialGradient>
<radialGradient id="paint15_radial_403_34461" cx="0" cy="0" r="1" gradientUnits="userSpaceOnUse" gradientTransform="translate(180.332 174.13) scale(14.7038 14.6977)">
<stop stop-color="#8065E0"/>
<stop offset="1" stop-color="#512BD4"/>
</radialGradient>
<radialGradient id="paint16_radial_403_34461" cx="0" cy="0" r="1" gradientUnits="userSpaceOnUse" gradientTransform="translate(166.622 324.513) scale(16.3049 16.2981)">
<stop stop-color="#8065E0"/>
<stop offset="1" stop-color="#512BD4"/>
</radialGradient>
<radialGradient id="paint17_radial_403_34461" cx="0" cy="0" r="1" gradientUnits="userSpaceOnUse" gradientTransform="translate(146.506 268.904) rotate(-177.525) scale(22.9695 22.96)">
<stop stop-color="#BDB9F0"/>
<stop offset="0.5336" stop-color="#C3BCEB" stop-opacity="0.4"/>
<stop offset="0.6108" stop-color="#CEC3E2" stop-opacity="0.3338"/>
<stop offset="0.8606" stop-color="#EDD6C9" stop-opacity="0.1195"/>
<stop offset="1" stop-color="#F9DDBF" stop-opacity="0"/>
</radialGradient>
<radialGradient id="paint18_radial_403_34461" cx="0" cy="0" r="1" gradientUnits="userSpaceOnUse" gradientTransform="translate(211.9 206.758) rotate(2.47484) scale(22.9695 22.96)">
<stop stop-color="#BDB9F0"/>
<stop offset="0.5266" stop-color="#C3BCEB" stop-opacity="0.7"/>
<stop offset="0.605" stop-color="#CEC3E2" stop-opacity="0.5841"/>
<stop offset="0.8586" stop-color="#EDD6C9" stop-opacity="0.2092"/>
<stop offset="1" stop-color="#F9DDBF" stop-opacity="0"/>
</radialGradient>
<clipPath id="clip0_403_34461">
<rect width="360" height="640" fill="white"/>
</clipPath>
</defs>
</svg>
